<mxfile host="app.diagrams.net" agent="Mozilla/5.0 (Windows NT 10.0; Win64; x64) AppleWebKit/537.36 (KHTML, like Gecko) Chrome/136.0.0.0 YaBrowser/25.6.0.0 Safari/537.36" version="27.2.0">
  <diagram name="Страница — 1" id="lr8S4C2i4rYFAMoBKQzn">
    <mxGraphModel dx="2067" dy="729" grid="0" gridSize="10" guides="1" tooltips="1" connect="1" arrows="1" fold="1" page="1" pageScale="1" pageWidth="827" pageHeight="1169" math="0" shadow="0">
      <root>
        <mxCell id="0" />
        <mxCell id="1" parent="0" />
        <mxCell id="lgOw27AiRfSfQtADjt31-7" value="Keypad" style="swimlane;fontStyle=1;align=center;verticalAlign=top;childLayout=stackLayout;horizontal=1;startSize=26;horizontalStack=0;resizeParent=1;resizeParentMax=0;resizeLast=0;collapsible=1;marginBottom=0;whiteSpace=wrap;html=1;" vertex="1" parent="1">
          <mxGeometry x="-423" y="224" width="270" height="150" as="geometry" />
        </mxCell>
        <mxCell id="lgOw27AiRfSfQtADjt31-8" value="+ ROWS: list[int]&lt;div&gt;+ COLS: list[int]&lt;/div&gt;&lt;div&gt;+ keys: list[list[str]]&lt;/div&gt;" style="text;strokeColor=none;fillColor=none;align=left;verticalAlign=top;spacingLeft=4;spacingRight=4;overflow=hidden;rotatable=0;points=[[0,0.5],[1,0.5]];portConstraint=eastwest;whiteSpace=wrap;html=1;" vertex="1" parent="lgOw27AiRfSfQtADjt31-7">
          <mxGeometry y="26" width="270" height="54" as="geometry" />
        </mxCell>
        <mxCell id="lgOw27AiRfSfQtADjt31-9" value="" style="line;strokeWidth=1;fillColor=none;align=left;verticalAlign=middle;spacingTop=-1;spacingLeft=3;spacingRight=3;rotatable=0;labelPosition=right;points=[];portConstraint=eastwest;strokeColor=inherit;" vertex="1" parent="lgOw27AiRfSfQtADjt31-7">
          <mxGeometry y="80" width="270" height="8" as="geometry" />
        </mxCell>
        <mxCell id="lgOw27AiRfSfQtADjt31-10" value="- __init__()&lt;div&gt;+ get_key(): str&lt;/div&gt;" style="text;strokeColor=none;fillColor=none;align=left;verticalAlign=top;spacingLeft=4;spacingRight=4;overflow=hidden;rotatable=0;points=[[0,0.5],[1,0.5]];portConstraint=eastwest;whiteSpace=wrap;html=1;" vertex="1" parent="lgOw27AiRfSfQtADjt31-7">
          <mxGeometry y="88" width="270" height="62" as="geometry" />
        </mxCell>
        <mxCell id="lgOw27AiRfSfQtADjt31-11" value="wiringPI(внешний)" style="swimlane;fontStyle=1;align=center;verticalAlign=top;childLayout=stackLayout;horizontal=1;startSize=26;horizontalStack=0;resizeParent=1;resizeParentMax=0;resizeLast=0;collapsible=1;marginBottom=0;whiteSpace=wrap;html=1;" vertex="1" parent="1">
          <mxGeometry x="-71" y="130" width="160" height="34" as="geometry" />
        </mxCell>
        <mxCell id="lgOw27AiRfSfQtADjt31-13" value="" style="line;strokeWidth=1;fillColor=none;align=left;verticalAlign=middle;spacingTop=-1;spacingLeft=3;spacingRight=3;rotatable=0;labelPosition=right;points=[];portConstraint=eastwest;strokeColor=inherit;" vertex="1" parent="lgOw27AiRfSfQtADjt31-11">
          <mxGeometry y="26" width="160" height="8" as="geometry" />
        </mxCell>
        <mxCell id="lgOw27AiRfSfQtADjt31-35" style="edgeStyle=orthogonalEdgeStyle;rounded=0;orthogonalLoop=1;jettySize=auto;html=1;entryX=0.5;entryY=1;entryDx=0;entryDy=0;endArrow=open;endFill=0;dashed=1;" edge="1" parent="1" source="lgOw27AiRfSfQtADjt31-15" target="lgOw27AiRfSfQtADjt31-19">
          <mxGeometry relative="1" as="geometry" />
        </mxCell>
        <mxCell id="lgOw27AiRfSfQtADjt31-15" value="LCD" style="swimlane;fontStyle=1;align=center;verticalAlign=top;childLayout=stackLayout;horizontal=1;startSize=26;horizontalStack=0;resizeParent=1;resizeParentMax=0;resizeLast=0;collapsible=1;marginBottom=0;whiteSpace=wrap;html=1;" vertex="1" parent="1">
          <mxGeometry x="92" y="240" width="270" height="130" as="geometry" />
        </mxCell>
        <mxCell id="lgOw27AiRfSfQtADjt31-16" value="+ lcd:CharLCD" style="text;strokeColor=none;fillColor=none;align=left;verticalAlign=top;spacingLeft=4;spacingRight=4;overflow=hidden;rotatable=0;points=[[0,0.5],[1,0.5]];portConstraint=eastwest;whiteSpace=wrap;html=1;" vertex="1" parent="lgOw27AiRfSfQtADjt31-15">
          <mxGeometry y="26" width="270" height="24" as="geometry" />
        </mxCell>
        <mxCell id="lgOw27AiRfSfQtADjt31-17" value="" style="line;strokeWidth=1;fillColor=none;align=left;verticalAlign=middle;spacingTop=-1;spacingLeft=3;spacingRight=3;rotatable=0;labelPosition=right;points=[];portConstraint=eastwest;strokeColor=inherit;" vertex="1" parent="lgOw27AiRfSfQtADjt31-15">
          <mxGeometry y="50" width="270" height="8" as="geometry" />
        </mxCell>
        <mxCell id="lgOw27AiRfSfQtADjt31-18" value="- __init__(int address, int port, int cols,int rows)&lt;div&gt;+ clear(): none&lt;/div&gt;&lt;div&gt;+ display(str line1, str line2,int&amp;nbsp; delay) none&lt;/div&gt;&lt;div&gt;+write_line(str text, int line): none&lt;/div&gt;&lt;div&gt;&lt;br&gt;&lt;/div&gt;" style="text;strokeColor=none;fillColor=none;align=left;verticalAlign=top;spacingLeft=4;spacingRight=4;overflow=hidden;rotatable=0;points=[[0,0.5],[1,0.5]];portConstraint=eastwest;whiteSpace=wrap;html=1;" vertex="1" parent="lgOw27AiRfSfQtADjt31-15">
          <mxGeometry y="58" width="270" height="72" as="geometry" />
        </mxCell>
        <mxCell id="lgOw27AiRfSfQtADjt31-19" value="CharLCD(внешний)" style="swimlane;fontStyle=1;align=center;verticalAlign=top;childLayout=stackLayout;horizontal=1;startSize=26;horizontalStack=0;resizeParent=1;resizeParentMax=0;resizeLast=0;collapsible=1;marginBottom=0;whiteSpace=wrap;html=1;" vertex="1" parent="1">
          <mxGeometry x="147" y="130" width="160" height="34" as="geometry" />
        </mxCell>
        <mxCell id="lgOw27AiRfSfQtADjt31-21" value="" style="line;strokeWidth=1;fillColor=none;align=left;verticalAlign=middle;spacingTop=-1;spacingLeft=3;spacingRight=3;rotatable=0;labelPosition=right;points=[];portConstraint=eastwest;strokeColor=inherit;" vertex="1" parent="lgOw27AiRfSfQtADjt31-19">
          <mxGeometry y="26" width="160" height="8" as="geometry" />
        </mxCell>
        <mxCell id="lgOw27AiRfSfQtADjt31-32" style="edgeStyle=orthogonalEdgeStyle;rounded=0;orthogonalLoop=1;jettySize=auto;html=1;entryX=0.484;entryY=0.906;entryDx=0;entryDy=0;entryPerimeter=0;endArrow=open;endFill=0;startArrow=none;startFill=0;dashed=1;exitX=0.995;exitY=0.084;exitDx=0;exitDy=0;exitPerimeter=0;" edge="1" parent="1" source="lgOw27AiRfSfQtADjt31-23">
          <mxGeometry relative="1" as="geometry">
            <mxPoint x="6.440000000000282" y="163.24800000000016" as="targetPoint" />
            <mxPoint x="-43" y="416" as="sourcePoint" />
            <Array as="points">
              <mxPoint x="-151" y="416" />
              <mxPoint x="5" y="416" />
              <mxPoint x="5" y="290" />
              <mxPoint x="6" y="290" />
            </Array>
          </mxGeometry>
        </mxCell>
        <mxCell id="lgOw27AiRfSfQtADjt31-23" value="MotionSensor" style="swimlane;fontStyle=1;align=center;verticalAlign=top;childLayout=stackLayout;horizontal=1;startSize=26;horizontalStack=0;resizeParent=1;resizeParentMax=0;resizeLast=0;collapsible=1;marginBottom=0;whiteSpace=wrap;html=1;" vertex="1" parent="1">
          <mxGeometry x="-420" y="395" width="270" height="190" as="geometry" />
        </mxCell>
        <mxCell id="lgOw27AiRfSfQtADjt31-24" value="+ pin: int&lt;div&gt;+ motion_detect_flag: bool&lt;/div&gt;&lt;div&gt;+ callback_function: any&lt;/div&gt;" style="text;strokeColor=none;fillColor=none;align=left;verticalAlign=top;spacingLeft=4;spacingRight=4;overflow=hidden;rotatable=0;points=[[0,0.5],[1,0.5]];portConstraint=eastwest;whiteSpace=wrap;html=1;" vertex="1" parent="lgOw27AiRfSfQtADjt31-23">
          <mxGeometry y="26" width="270" height="54" as="geometry" />
        </mxCell>
        <mxCell id="lgOw27AiRfSfQtADjt31-25" value="" style="line;strokeWidth=1;fillColor=none;align=left;verticalAlign=middle;spacingTop=-1;spacingLeft=3;spacingRight=3;rotatable=0;labelPosition=right;points=[];portConstraint=eastwest;strokeColor=inherit;" vertex="1" parent="lgOw27AiRfSfQtADjt31-23">
          <mxGeometry y="80" width="270" height="8" as="geometry" />
        </mxCell>
        <mxCell id="lgOw27AiRfSfQtADjt31-26" value="- __init__(int pin): none&lt;div&gt;- __isr(): none&lt;/div&gt;&lt;div&gt;+ on_motion(callback_function):none&lt;/div&gt;&lt;div&gt;+ read(): int&lt;/div&gt;&lt;div&gt;+ check_motion(): bool&lt;/div&gt;" style="text;strokeColor=none;fillColor=none;align=left;verticalAlign=top;spacingLeft=4;spacingRight=4;overflow=hidden;rotatable=0;points=[[0,0.5],[1,0.5]];portConstraint=eastwest;whiteSpace=wrap;html=1;" vertex="1" parent="lgOw27AiRfSfQtADjt31-23">
          <mxGeometry y="88" width="270" height="102" as="geometry" />
        </mxCell>
        <mxCell id="lgOw27AiRfSfQtADjt31-33" style="edgeStyle=orthogonalEdgeStyle;rounded=0;orthogonalLoop=1;jettySize=auto;html=1;entryX=0.637;entryY=0.75;entryDx=0;entryDy=0;entryPerimeter=0;endArrow=open;endFill=0;startArrow=none;startFill=0;dashed=1;" edge="1" parent="1" source="lgOw27AiRfSfQtADjt31-27" target="lgOw27AiRfSfQtADjt31-13">
          <mxGeometry relative="1" as="geometry">
            <mxPoint x="30" y="170" as="targetPoint" />
            <Array as="points">
              <mxPoint x="31" y="375" />
              <mxPoint x="31" y="375" />
            </Array>
          </mxGeometry>
        </mxCell>
        <mxCell id="lgOw27AiRfSfQtADjt31-27" value="PinAction" style="swimlane;fontStyle=1;align=center;verticalAlign=top;childLayout=stackLayout;horizontal=1;startSize=26;horizontalStack=0;resizeParent=1;resizeParentMax=0;resizeLast=0;collapsible=1;marginBottom=0;whiteSpace=wrap;html=1;" vertex="1" parent="1">
          <mxGeometry x="-100" y="500" width="270" height="180" as="geometry" />
        </mxCell>
        <mxCell id="lgOw27AiRfSfQtADjt31-28" value="+ pin: int" style="text;strokeColor=none;fillColor=none;align=left;verticalAlign=top;spacingLeft=4;spacingRight=4;overflow=hidden;rotatable=0;points=[[0,0.5],[1,0.5]];portConstraint=eastwest;whiteSpace=wrap;html=1;" vertex="1" parent="lgOw27AiRfSfQtADjt31-27">
          <mxGeometry y="26" width="270" height="34" as="geometry" />
        </mxCell>
        <mxCell id="lgOw27AiRfSfQtADjt31-29" value="" style="line;strokeWidth=1;fillColor=none;align=left;verticalAlign=middle;spacingTop=-1;spacingLeft=3;spacingRight=3;rotatable=0;labelPosition=right;points=[];portConstraint=eastwest;strokeColor=inherit;" vertex="1" parent="lgOw27AiRfSfQtADjt31-27">
          <mxGeometry y="60" width="270" height="8" as="geometry" />
        </mxCell>
        <mxCell id="lgOw27AiRfSfQtADjt31-30" value="- __init__(int pin): none&lt;div&gt;+ on(): none&lt;/div&gt;&lt;div&gt;+ off(): none&lt;/div&gt;&lt;div&gt;+ blink(int times, float delay): none&lt;/div&gt;&lt;div&gt;+ toggle(): none&lt;/div&gt;&lt;div&gt;+ read(): int&lt;/div&gt;" style="text;strokeColor=none;fillColor=none;align=left;verticalAlign=top;spacingLeft=4;spacingRight=4;overflow=hidden;rotatable=0;points=[[0,0.5],[1,0.5]];portConstraint=eastwest;whiteSpace=wrap;html=1;" vertex="1" parent="lgOw27AiRfSfQtADjt31-27">
          <mxGeometry y="68" width="270" height="112" as="geometry" />
        </mxCell>
        <mxCell id="lgOw27AiRfSfQtADjt31-31" style="edgeStyle=orthogonalEdgeStyle;rounded=0;orthogonalLoop=1;jettySize=auto;html=1;entryX=0.273;entryY=1.062;entryDx=0;entryDy=0;entryPerimeter=0;endArrow=open;endFill=0;startArrow=none;startFill=0;dashed=1;" edge="1" parent="1" source="lgOw27AiRfSfQtADjt31-7" target="lgOw27AiRfSfQtADjt31-13">
          <mxGeometry relative="1" as="geometry" />
        </mxCell>
      </root>
    </mxGraphModel>
  </diagram>
</mxfile>
